<svg id="Capa_1" data-name="Capa 1" xmlns="http://www.w3.org/2000/svg" viewBox="0 0 350.29 78.77"><defs><style>.cls-1,.cls-2{fill:#fff;stroke:#fff;stroke-miterlimit:10;}.cls-2{stroke-width:0.5px;}</style></defs><g id="vector"><path class="cls-1" d="M75.15,16.55a23,23,0,1,0,23,23v0a23,23,0,0,0-23-22.95Zm0,41.32A18.37,18.37,0,1,1,93.52,39.5h0A18.36,18.36,0,0,1,75.17,57.87Z" transform="translate(0.04 0)"/><polygon class="cls-1" points="52.2 18.91 52.2 77.91 56.79 75.31 56.79 16.31 52.2 18.91"/><path class="cls-1" d="M173.89,16.55a23,23,0,1,0,23,23v0a23,23,0,0,0-22.95-22.95Zm0,41.32A18.37,18.37,0,1,1,192.26,39.5h0a18.36,18.36,0,0,1-18.35,18.37Z" transform="translate(0.04 0)"/><polygon class="cls-1" points="192.29 3.47 192.29 62.47 196.88 59.86 196.88 0.86 192.29 3.47"/><path class="cls-1" d="M23.46,16.55a23,23,0,1,0,23,23v0A23,23,0,0,0,23.46,16.55Zm0,41.32A18.37,18.37,0,1,1,41.83,39.5h0A18.36,18.36,0,0,1,23.48,57.87Z" transform="translate(0.04 0)"/><polygon class="cls-1" points="41.86 19.02 41.86 62.6 41.88 62.6 46.45 60.01 46.45 16.41 41.86 19.02"/><path class="cls-1" d="M225.56,16.55a23,23,0,1,0,23,23v0A23,23,0,0,0,225.56,16.55Zm0,41.32a18.37,18.37,0,1,1,18.36-18.38h0A18.37,18.37,0,0,1,225.56,57.87Z" transform="translate(0.04 0)"/><polygon class="cls-1" points="243.96 19.02 243.96 62.6 243.98 62.6 248.55 60.01 248.55 16.41 243.96 19.02"/><path class="cls-1" d="M307.6,16.16a23,23,0,1,0,22.95,23.05v-.05A23,23,0,0,0,307.6,16.16Zm0,41.32A18.37,18.37,0,1,1,326,39.1v0A18.36,18.36,0,0,1,307.6,57.48Z" transform="translate(0.04 0)"/><polygon class="cls-1" points="326 18.63 326 62.22 326.02 62.22 330.59 59.62 330.59 16.03 326 18.63"/><path class="cls-1" d="M139.91,19.29V49.41h0a18.36,18.36,0,0,1-30.74,0h0V16.68l-5.27,2.61V49.41a23,23,0,0,0,41.3,0V16.68Z" transform="translate(0.04 0)"/><rect class="cls-1" x="249.46" y="16.07" width="33.34" height="4.45"/><path class="cls-1" d="M280.72,57.73a18.36,18.36,0,0,1-15.37-8.32h0V.86l-5.27,2.27V49.41a23,23,0,0,0,20.64,12.92,13.31,13.31,0,0,0,2.1-.11V57.61A18.48,18.48,0,0,1,280.72,57.73Z" transform="translate(0.04 0)"/><circle class="cls-1" cx="23.5" cy="39.51" r="3.81"/><circle class="cls-1" cx="345.98" cy="39.12" r="3.81"/><line class="cls-2" x1="345.98" y1="39.12" x2="220.4" y2="39.28"/></g></svg>