<svg xmlns="http://www.w3.org/2000/svg" viewBox="0 0 350.25 78.77"><defs><style>.cls-1,.cls-2{fill:#1d1d1b;stroke:#1d1d1b;stroke-miterlimit:10;}.cls-2{stroke-width:0.5px;}</style></defs><g id="vector"><path class="cls-1" d="M185.43,253.74a23,23,0,1,0,23,22.95A22.95,22.95,0,0,0,185.43,253.74Zm0,41.32a18.37,18.37,0,1,1,18.37-18.37A18.36,18.36,0,0,1,185.43,295.06Z" transform="translate(-110.28 -237.19)"/><polygon class="cls-1" points="52.16 18.91 52.16 77.91 56.75 75.31 56.75 16.31 52.16 18.91"/><path class="cls-1" d="M284.17,253.74a23,23,0,1,0,23,22.95A22.95,22.95,0,0,0,284.17,253.74Zm0,41.32a18.37,18.37,0,1,1,18.37-18.37A18.36,18.36,0,0,1,284.17,295.06Z" transform="translate(-110.28 -237.19)"/><polygon class="cls-1" points="192.25 3.47 192.25 62.47 196.84 59.86 196.84 0.86 192.25 3.47"/><path class="cls-1" d="M133.74,253.74a23,23,0,1,0,23,22.95A23,23,0,0,0,133.74,253.74Zm0,41.32a18.37,18.37,0,1,1,18.37-18.37A18.36,18.36,0,0,1,133.74,295.06Z" transform="translate(-110.28 -237.19)"/><polygon class="cls-1" points="41.82 19.02 41.82 62.6 41.84 62.6 46.41 60.01 46.41 16.41 41.82 19.02"/><path class="cls-1" d="M335.84,253.74a23,23,0,1,0,23,22.95A23,23,0,0,0,335.84,253.74Zm0,41.32a18.37,18.37,0,1,1,18.36-18.37A18.37,18.37,0,0,1,335.84,295.06Z" transform="translate(-110.28 -237.19)"/><polygon class="cls-1" points="243.92 19.02 243.92 62.6 243.94 62.6 248.51 60.01 248.51 16.41 243.92 19.02"/><path class="cls-1" d="M417.88,253.35a23,23,0,1,0,22.95,23A23,23,0,0,0,417.88,253.35Zm0,41.32a18.37,18.37,0,1,1,18.36-18.36A18.36,18.36,0,0,1,417.88,294.67Z" transform="translate(-110.28 -237.19)"/><polygon class="cls-1" points="325.96 18.63 325.96 62.22 325.98 62.22 330.55 59.62 330.55 16.03 325.96 18.63"/><path class="cls-1" d="M250.19,256.48V286.6h0a18.36,18.36,0,0,1-30.74,0h0V253.87l-5.27,2.61V286.6a23,23,0,0,0,41.3,0V253.87Z" transform="translate(-110.28 -237.19)"/><rect class="cls-1" x="359.7" y="253.24" width="33.34" height="4.45" transform="translate(642.46 273.76) rotate(180)"/><path class="cls-1" d="M391,294.92a18.34,18.34,0,0,1-15.37-8.32h0V238.05l-5.27,2.27V286.6A23,23,0,0,0,391,299.52c.71,0,1.41,0,2.1-.11V294.8A18.22,18.22,0,0,1,391,294.92Z" transform="translate(-110.28 -237.19)"/><circle class="cls-1" cx="23.46" cy="39.51" r="3.81"/><circle class="cls-1" cx="345.94" cy="39.12" r="3.81"/><line class="cls-2" x1="345.94" y1="39.12" x2="220.36" y2="39.28"/></g></svg>