<svg xmlns="http://www.w3.org/2000/svg" viewBox="0 0 500 500"><defs><style>.cls-1{fill:#35a6df;}.cls-2{fill:#204697;}.cls-3,.cls-4,.cls-5,.cls-6{fill:#fff;}.cls-4,.cls-5,.cls-6{stroke:#fff;stroke-miterlimit:10;}.cls-4{stroke-width:3px;}.cls-5{stroke-width:4px;}.cls-6{font-size:23.86px;font-family:Howvetica;}</style></defs><g id="Capa_2" data-name="Capa 2"><g id="Capa_1-2" data-name="Capa 1"><rect class="cls-1" width="250" height="250"/><rect class="cls-2" x="250" width="250" height="250"/><rect class="cls-2" y="250" width="250" height="250"/><rect class="cls-1" x="250" y="250" width="250" height="250"/><path class="cls-3" d="M372.69,160.68a60.53,60.53,0,0,1,26.66,6,5.44,5.44,0,0,0,6.23-1.06h0a5.47,5.47,0,0,0-1.43-8.76,72.81,72.81,0,0,0-62.91,0,5.46,5.46,0,0,0-1.44,8.75l0,0a5.41,5.41,0,0,0,6.22,1.05A60.62,60.62,0,0,1,372.69,160.68Z"/><path class="cls-3" d="M372.68,91.69c-28.8,0-55.48,7.27-77.36,19.61a5.46,5.46,0,0,0-1.17,8.62h0a5.44,5.44,0,0,0,6.52.91c20.25-11.41,45.13-18.15,72-18.15s51.77,6.74,72,18.15a5.45,5.45,0,0,0,6.53-.91h0a5.46,5.46,0,0,0-1.18-8.62C428.18,99,401.47,91.69,372.68,91.69Z"/><path class="cls-3" d="M372.69,121.12a114,114,0,0,0-54.12,13.26,5.47,5.47,0,0,0-1.27,8.68v0a5.47,5.47,0,0,0,6.47.94,106.4,106.4,0,0,1,97.83,0,5.47,5.47,0,0,0,6.47-.94h0a5.47,5.47,0,0,0-1.26-8.68A113.74,113.74,0,0,0,372.69,121.12Z"/><path class="cls-3" d="M372.69,61.08c-37.87,0-72.95,9.72-101.47,26.18a5.46,5.46,0,0,0-1.14,8.59l0,0a5.44,5.44,0,0,0,6.55.89c26.9-15.5,60.12-24.69,96-24.69s69.16,9.19,96.06,24.69a5.44,5.44,0,0,0,6.55-.89h0a5.45,5.45,0,0,0-1.14-8.58C445.64,70.8,410.58,61.08,372.69,61.08Z"/><circle class="cls-3" cx="372.69" cy="198.46" r="14.23"/><path class="cls-4" d="M167.69,138.17H150c-1-12.46-12.2-22.31-25.77-22.31-14.27,0-25.87,10.87-25.87,24.21s11.6,24.22,25.87,24.22c12.37,0,22.75-8.18,25.27-19.07h18.86a10,10,0,0,0,10-10V83.81a3.53,3.53,0,0,0-3.53-3.53H116.93a13.28,13.28,0,0,0-9.82,4.34l-30.93,34.1a12.93,12.93,0,0,0-3.33,8.65v51.26a9.71,9.71,0,0,0,9.71,9.72h111.2a9.3,9.3,0,0,0,9.31-9.3V66.56A9.11,9.11,0,0,0,194,57.45H102.29A13.66,13.66,0,0,0,92,62.16l-41.8,48A13.17,13.17,0,0,0,47,118.8v87.9a9.63,9.63,0,0,0,9.63,9.62H197.87a3.08,3.08,0,0,0,3.08-3.09v-.88a3.08,3.08,0,0,0-3.08-3.08H57.59a3.54,3.54,0,0,1-3.53-3.53V117.83a3.54,3.54,0,0,1,.87-2.31l43.33-49.8a3.51,3.51,0,0,1,2.66-1.21h91.51A3.53,3.53,0,0,1,196,68V177.77a3.53,3.53,0,0,1-3.53,3.52H83.49A3.53,3.53,0,0,1,80,177.76V126.48a3.54,3.54,0,0,1,.91-2.38l32.3-35.61a3.52,3.52,0,0,1,2.62-1.15h51.9a3.52,3.52,0,0,1,3.53,3.53v43.77A3.53,3.53,0,0,1,167.69,138.17Zm-43.5,19c-10.31,0-18.7-7.64-18.7-17.05s8.39-17,18.7-17,18.69,7.65,18.69,17S134.49,157.12,124.19,157.12Z"/><path class="cls-3" d="M477.57,431.22H267.81a6.33,6.33,0,0,0-6.34,6.33A13.51,13.51,0,0,0,275,451.06H470.39a13.52,13.52,0,0,0,13.52-13.51A6.33,6.33,0,0,0,477.57,431.22ZM447.19,303.16h-149A14.89,14.89,0,0,0,283.31,318V427H462.06V318A14.89,14.89,0,0,0,447.19,303.16Zm3.59,110.29H294.6V313.15H450.78Z"/><path class="cls-3" d="M372.69,328.32c-19.63,0-35.55,15.32-35.55,34.23s15.92,34.23,35.55,34.23,35.54-15.33,35.54-34.23S392.32,328.32,372.69,328.32Zm-31.47,34.23a16.11,16.11,0,1,1,16.1,16.1A16.1,16.1,0,0,1,341.22,362.55Zm36.09,0a19.5,19.5,0,0,0-18.69-19.49,21,21,0,1,1,0,39A19.5,19.5,0,0,0,377.31,362.55Zm-3.82,28a28,28,0,0,1-11.12-2.29,27.26,27.26,0,0,0,3.85.28,26,26,0,1,0-3.86-51.65,28,28,0,1,1,11.13,53.66Z"/><path class="cls-5" d="M68.26,404.7v-65a2.8,2.8,0,0,1,.7-1.85l34.52-39.67a2.78,2.78,0,0,1,2.12-1h72.91a2.81,2.81,0,0,1,2.81,2.81V387.5a2.81,2.81,0,0,1-2.81,2.81H92.06a3.16,3.16,0,0,1-3.16-3.17V346.63a2.79,2.79,0,0,1,.72-1.89l25.74-28.38a2.82,2.82,0,0,1,2.09-.92H158.8a2.81,2.81,0,0,1,2.81,2.81v4.47a.35.35,0,0,0,.35.35h5a.35.35,0,0,0,.36-.35V312.63a2.81,2.81,0,0,0-2.82-2.81h-46.1a10.58,10.58,0,0,0-7.83,3.46L85.88,340.45a10.3,10.3,0,0,0-2.65,6.89v40.85A7.74,7.74,0,0,0,91,395.93h88.25a7.77,7.77,0,0,0,7.77-7.77V298.88a7.26,7.26,0,0,0-7.26-7.25h-73a10.89,10.89,0,0,0-8.22,3.75L65.16,333.64a10.51,10.51,0,0,0-2.56,6.87V404.7h-.08v39.86a18.05,18.05,0,0,0,18,18h88.93a18.05,18.05,0,0,0,18-18V404.7ZM181.8,444.56a12.34,12.34,0,0,1-12.32,12.33H80.55a12.34,12.34,0,0,1-12.33-12.33V410.4H181.8Z"/><text class="cls-6" transform="translate(99.56 365.31) scale(1.29 1)">APP</text><path class="cls-3" d="M125,451.69a16.91,16.91,0,1,1,16.91-16.91A16.93,16.93,0,0,1,125,451.69Zm0-29.55a12.64,12.64,0,1,0,12.64,12.64A12.65,12.65,0,0,0,125,422.14Z"/><circle class="cls-3" cx="125.01" cy="434.78" r="5.28"/></g></g></svg>