<svg xmlns="http://www.w3.org/2000/svg" viewBox="0 0 500 589.05"><defs><style>.cls-1{fill:#35a6df;}.cls-2{fill:#204697;}.cls-3{fill:none;}.cls-4{fill:#1f2e55;}.cls-5{fill:#fff;}</style></defs><g id="Capa_2" data-name="Capa 2"><g id="Capa_1-2" data-name="Capa 1"><path class="cls-1" d="M326.41,348.9a12,12,0,1,1,0-17A12,12,0,0,1,326.41,348.9Z"/><path class="cls-2" d="M364.16,500.54C437.27,402.87,478,281.46,479,159.41A15.76,15.76,0,0,0,465.3,143.7a273.5,273.5,0,0,1-110-40.54c-37-23.73-74.46-53.55-89.28-95C294.19,46.47,361,115.48,481.08,122A19.87,19.87,0,0,1,500,141.84C500,198.47,488.84,368.36,364.16,500.54Z"/><path class="cls-3" d="M326.41,331.93a12,12,0,1,0,0,17A11.94,11.94,0,0,0,326.41,331.93Z"/><path class="cls-1" d="M227.79,135.76a11.94,11.94,0,0,1-3.54,8.54,11.75,11.75,0,0,1-3.85,2.58,18,18,0,0,1-9.39,0,11.75,11.75,0,0,1-3.85-2.58,12.09,12.09,0,0,1,14.19-19.24,12.26,12.26,0,0,1,2.9,2.15A12,12,0,0,1,227.79,135.76Z"/><path class="cls-1" d="M500,141.83c0,56.64-11.16,226.53-135.85,358.71C333.5,533.06,296,563.33,250,589.05a492,492,0,0,1-55.42-36.11l64.78-64.84V414.21l50.79-50.79a23.09,23.09,0,0,0,7.77,1.41,24.4,24.4,0,0,0,17.25-41.68,24.44,24.44,0,0,0-41.69,17.25,24.9,24.9,0,0,0,1.41,7.82L237.82,405.3v73.89l-60.3,60.28a451.5,451.5,0,0,1-41-38.29l61.25-61.31V387.54l36.14-36.13v5.71a9.45,9.45,0,0,0,9.42,9.41h9.51a9.44,9.44,0,0,0,9.41-9.41V318.28a21.29,21.29,0,0,0,4.9-4.81,28.34,28.34,0,1,0-33.24,3.58v3.88l-57.68,57.69V431l-54.2,54.19a467.21,467.21,0,0,1-29.31-37.84l42.45-42.39v-85.3l19.33-19.33L227,227.84V157.36a26.46,26.46,0,0,0,6-4.3c.31-.32.62-.65.9-1a24.48,24.48,0,0,0,1-31.45,23.67,23.67,0,0,0-1.87-2.14c-9.23-9.24-25.33-9.24-34.57,0a24.55,24.55,0,0,0,0,34.57,23.89,23.89,0,0,0,6.93,4.74v61.12l-2.9,2.91-47.94,47.94-40.93,40.94v85.23l-33,33C7.69,312.69,0,188.59,0,141.83A19.82,19.82,0,0,1,18.92,122c120-6.54,186.89-75.55,215-113.84a19.81,19.81,0,0,1,32.08,0c28.15,38.29,95,107.3,215,113.84A19.87,19.87,0,0,1,500,141.83Z"/><path class="cls-4" d="M264.81,290.89a16.73,16.73,0,0,1-10.52,15.53v45.13a5,5,0,0,1-5,5h-2.38a5,5,0,0,1-5-5V306.42a16.71,16.71,0,1,1,22.89-15.53Z"/><path class="cls-5" d="M362.2,131.52c-44.61,0-80.77,34.82-80.77,77.77s36.16,77.78,80.77,77.78S443,252.25,443,209.29,406.8,131.52,362.2,131.52Zm-71.5,77.77a36.59,36.59,0,1,1,36.59,36.59A36.58,36.58,0,0,1,290.7,209.29Zm82,0A44.32,44.32,0,0,0,330.23,165a47.8,47.8,0,1,1,0,88.57A44.32,44.32,0,0,0,372.71,209.29ZM364,272.88a63.42,63.42,0,0,1-25.25-5.21,60,60,0,0,0,8.75.64,59,59,0,0,0,0-118,60.38,60.38,0,0,0-8.78.65A63.59,63.59,0,1,1,364,272.88Z"/></g></g></svg>