<svg xmlns="http://www.w3.org/2000/svg" viewBox="0 0 500 407.47"><defs><style>.cls-1{isolation:isolate;}.cls-2{fill:#54a9dc;}.cls-3{fill:#002d56;}.cls-4{fill:none;}.cls-5{fill:#004a9a;}.cls-5,.cls-6{mix-blend-mode:multiply;}</style></defs><g class="cls-1"><g id="Capa_2" data-name="Capa 2"><g id="Capa_1-2" data-name="Capa 1"><path class="cls-2" d="M286.22,391.49c-.57-5.92-6.85-11.76-16.8-19.28-2.31-1.64-4.41-3.18-6.19-4.49a16.15,16.15,0,0,1,.11,2.87,15.48,15.48,0,0,1-5.08,10.79L243.2,395.07c14.32,8.5,23,12.54,28.85,12.39,3.37-.08,6.05-1.55,9.27-5.09C284.92,398.42,286.52,394.86,286.22,391.49Z"/><path class="cls-3" d="M382.45,315.55a17.79,17.79,0,0,1-17.05,8.93c-5.94-.36-17-7-31.19-18.47-8.89-8.33-19.29-17.07-19.4-17.17a2.19,2.19,0,0,0-2.93,3.24c.09.09,8.83,8.56,19.34,17.13,1.37,1.26,2.69,2.54,3.95,3.75,2.5,2.45,5.06,4.81,7.55,7.11,14.07,12.91,22.34,21.38,15.73,32.57-3.51,6-10.65,12.11-17.48,12.27a11.1,11.1,0,0,1-3.54-.49c-3.13-1-11.92-7.43-22.16-15.53s-22-17.92-30.92-25.66a2.19,2.19,0,1,0-2.87,3.31c.25.21,24.8,21.55,37.57,35.59,4.88,5.39,4.23,10.45,2.81,13.75-2.58,6.06-9.95,11.1-16.42,11.26a10.75,10.75,0,0,1-2.38-.18c-4.79-.9-15.83-7.4-31-18.24q-3.35-2.5-7.11-5.25l-4.76-3.5a2.38,2.38,0,0,0-.65-.34,2.73,2.73,0,0,1-.23-.25l-5.25-5.78a15.55,15.55,0,0,0-22-1l-2.34,2.12a15.54,15.54,0,0,0-3-16.18l-5.25-5.77a15.54,15.54,0,0,0-22-1.05l-2,1.85A15.6,15.6,0,0,0,195.14,316l-5.25-5.78a15.55,15.55,0,0,0-16.36-4.32,15.59,15.59,0,0,0-.92-19.84l-5.25-5.78a15.57,15.57,0,0,0-22-1L119.22,303a14.89,14.89,0,0,0-2.42,2.81,14.08,14.08,0,0,0-1.11,1.92l-9-7,.78-2.18,39.61-110.26h0a63.09,63.09,0,0,0,11.29.7,89,89,0,0,0,30.2-6.59c19.43-7.68,34.58-11.84,45.65-14.08-1.56,1.53-3.23,3.24-5,5.15-6.37,6.84-12.42,13.64-17.73,19.65-7.22,8.12-13.44,15.15-16,17.07a4.3,4.3,0,0,0-1.42,5.09c2,5.63,15.36,13.39,32,11.79,19.37-1.87,33.27-15.53,44.79-28.18a5.94,5.94,0,0,1,4.47-2c10.38-.25,28.83,16.9,42.31,29.43L321.6,230c10.12,9.33,21,21,30.69,31.23,5.4,5.75,10.32,11,14.48,15.16,8.24,9.41,14.15,16.8,16.52,21.23C386.09,302.81,385.76,309.85,382.45,315.55Z"/><path class="cls-4" d="M370.28,273.73l.31.36"/><path class="cls-2" d="M375.41,278.63c-1.52-1.36-3.24-3-5.13-4.9Z"/><path class="cls-5" d="M391,287c-4-.77-9.51-2.91-15.61-8.38l-56.61-57.2c-4-3.7-8.2-7.57-12.45-11.24-11.19-9.65-22.66-17.84-31.1-17.64a10.3,10.3,0,0,0-7.6,3.39c-11,12.05-24.16,25.06-42,26.78-12.95,1.27-23-3.81-26.27-7.21a4.58,4.58,0,0,1-1.25-1.83c2.89-2.19,8.64-8.67,16.62-17.66,5.31-6,11.33-12.76,17.67-19.57a111.09,111.09,0,0,1,9.82-9.54q1.8-1.53,3.4-2.67a35,35,0,0,1,15.46-6.46l.87-.18c5.91-1.29,25.2,3.58,42,7.73,7.24,1.79,14.07,3.49,19.86,4.73,13.43,2.88,32.15,3.1,45.51,2.79,1.8,0,3.54-.11,5.17-.16Z"/><g class="cls-6"><path class="cls-5" d="M168.62,304.82l-24.27,22.05-1.65,1.51-.22.2a10,10,0,0,1-1.57,1.17,11.57,11.57,0,0,1-14.24-1.94L121.42,322a11.18,11.18,0,0,1-2.78-9.29,10.14,10.14,0,0,1,.62-2.28,11.67,11.67,0,0,1,1-2,11.82,11.82,0,0,1,1.9-2.25l26.14-23.75a11.21,11.21,0,0,1,15.82.76l5.26,5.78A11.21,11.21,0,0,1,168.62,304.82Z"/></g><g class="cls-6"><path class="cls-5" d="M191.13,334.76l-16.26,14.77L173.21,351l-1.64,1.5-6.57,6a11.52,11.52,0,0,1-15.81-.76L143.92,352a11.22,11.22,0,0,1,.77-15.82l2.14-2,1.64-1.48,1.65-1.51,20.7-18.81a11.21,11.21,0,0,1,15.82.76l5.25,5.77A11.23,11.23,0,0,1,191.13,334.76Z"/></g><g class="cls-6"><path class="cls-5" d="M222.78,357.26l-16.16,14.68L205,373.46,203.29,375l-6.65,6a11.54,11.54,0,0,1-15.82-.75l-5.25-5.79a11.17,11.17,0,0,1,.75-15.81l1.63-1.49,1.66-1.49,1.66-1.52,21.19-19.25a11.2,11.2,0,0,1,15.82.75l5.26,5.77A11.24,11.24,0,0,1,222.78,357.26Z"/></g><g class="cls-6"><path class="cls-5" d="M259,370.39a11.1,11.1,0,0,1-3.64,7.75l-16,14.58-1.69,1.54-1.69,1.53-6.7,6.1a11.51,11.51,0,0,1-15.83-.76l-5.25-5.77a11.2,11.2,0,0,1,.75-15.82l.53-.48,1.67-1.51,1.68-1.53L235,355.79a11.21,11.21,0,0,1,15.82.76l5.24,5.78A11,11,0,0,1,259,370.39Z"/></g><polygon class="cls-3" points="142.07 172.56 138.97 181.17 138.23 183.27 137.47 185.35 98.57 293.61 97.79 295.78 97.02 297.95 93.18 308.61 0 275.6 48.02 141.1 142.07 172.56"/><polygon class="cls-3" points="500 289.23 402.22 303.62 400.34 290.67 400.03 288.51 399.71 286.33 383.09 171.45 382.77 169.28 382.46 167.1 381.76 162.27 479.6 146.11 500 289.23"/><path class="cls-2" d="M222.53,92v67.67a301.6,301.6,0,0,0-33.42,11.18,90.48,90.48,0,0,1-27.9,6.49V92Z"/><path class="cls-2" d="M294.38,49.82V151.26c-13.76-3.34-27.13-6.27-31.87-5.23l-.87.18a38.17,38.17,0,0,0-10.74,3.49l0,0a53,53,0,0,0-16.47,10.5,13.61,13.61,0,0,0-1.35,1.47V49.82Z"/><path class="cls-2" d="M366.21,0V161.33c-13,.19-29.63-.22-41.87-2.85-5.68-1.22-12.35-2.87-19.44-4.62V0Z"/></g></g></g></svg>