<svg xmlns="http://www.w3.org/2000/svg" viewBox="0 0 400 411.54"><defs><style>.cls-1{fill:#35a6df;}.cls-2{fill:#1f2e55;}</style></defs><g id="Capa_2" data-name="Capa 2"><g id="Capa_1-2" data-name="Capa 1"><path class="cls-1" d="M143,.16,136,0H29.62C13.26,0,0,13,0,29.1V73.65A28.63,28.63,0,0,0,5.7,90.78a29.68,29.68,0,0,0,23.92,12H337.28A16.75,16.75,0,0,1,354,119.51V352a16.75,16.75,0,0,1-16.72,16.78H62.75A16.75,16.75,0,0,1,46,352V192.57a16.75,16.75,0,0,1,16.72-16.76H164.51v.76a16,16,0,0,0,24,13.9l25.33-14.66,13.66-7.9a16.07,16.07,0,0,0,0-27.8l-14.92-8.64-24.07-13.94a16,16,0,0,0-24,13.9v0H58.15A58.1,58.1,0,0,0,0,189.77V353.24a58.21,58.21,0,0,0,58.14,58.3H341.88A58.2,58.2,0,0,0,400,353.24V116.7a58.2,58.2,0,0,0-58.12-58.28H221.37c-3.14.15-16.48.41-27.89-9.46a39.56,39.56,0,0,1-11.95-18.74A41,41,0,0,0,143,.16Z"/><ellipse class="cls-2" cx="200" cy="247.88" rx="14.47" ry="14.69"/><path class="cls-2" d="M200,208.65a38.73,38.73,0,0,0-20,71.83v46.89a20,20,0,1,0,40,0V280.48a38.73,38.73,0,0,0-20-71.83Zm19.93,59.52a28.89,28.89,0,0,1-9.77,6.2v53a10.16,10.16,0,1,1-20.32,0v-53a28.8,28.8,0,1,1,30.09-6.2Z"/></g></g></svg>