<svg xmlns="http://www.w3.org/2000/svg" viewBox="0 0 500 202"><defs><style>.cls-1{fill:#54a9dc;}.cls-2{fill:#002d56;}</style></defs><g id="Capa_2" data-name="Capa 2"><g id="Capa_1-2" data-name="Capa 1"><path class="cls-1" d="M176.29,122.58c34.27-18,88.85-46.72,136.93-72.73,0,0,35.92-19.84,76.9-15.47,38.18,4.08,68.66,30.36,68.66,64.41,0,35.6-33.17,64.57-73.94,64.57-49,4.74-99.95-55.34-99.95-55.34C256.3,75.36,198.43,22.51,179.06,13,148.61-1.95,116.44.09,116.15.1,52,.69,0,44.68,0,98.67,0,153,52.69,197.25,117.46,197.25c0,0,24,2.49,57.34-14.68,53.38-24.25,124.34-71.71,164.59-99.83L336.61,78C282.48,105.91,180.26,158,151.85,168.1c-9.49,3.39-28.47,3.28-28.47,3.28-46.58,0-84.47-29.52-84.47-65.8,0-33.81,32.92-61.75,75.11-65.39,0,0,4.62-.08,5.3-.08,11.55,0,33.45,2.84,43.05,10.16l2.34,1.55c10,5.79,26.59,20.07,45.43,38.84L242,123.54c18.36,19.31,46.34,46.9,67.32,59.46,25.37,18.41,66.61,19,71.75,19h.34C446.82,202,500,157.9,500,103.71c0-35.87-23.3-67.31-58-84.47-8.1-4.6-20-6.74-20-6.74-61.16-9.67-93.68,6.67-93.68,6.67-49.67,23.14-116.49,69.84-155,98Z"/><path class="cls-2" d="M176.29,122.58c-20.66,10.83-33.93,17.73-33.93,17.73s12.08-9.35,30.92-23.13Z"/><path class="cls-2" d="M339.39,82.74c19.19-13.4,31.4-22.41,31.4-22.41s-13.62,7.1-34.18,17.7Z"/></g></g></svg>