<svg xmlns="http://www.w3.org/2000/svg" viewBox="0 0 586.95 298.45"><defs><style>.cls-1{isolation:isolate;}.cls-2{fill:#002d56;}.cls-3{fill:#54a9dc;}.cls-4{fill:#004a9a;mix-blend-mode:multiply;}</style></defs><g class="cls-1"><g id="Capa_2" data-name="Capa 2"><g id="Capa_1-2" data-name="Capa 1"><rect class="cls-2" y="278.89" width="586.95" height="19.57"/><path class="cls-2" d="M123.47,83A40.76,40.76,0,0,1,96.65,69a40.75,40.75,0,0,1-3.82-5A42.78,42.78,0,0,1,86.26,40a40.45,40.45,0,0,1,7.91-22.54,42.52,42.52,0,0,1,5.25-5.89A43.21,43.21,0,0,1,128.84,0H494.43A6.17,6.17,0,0,1,498,1.1a6.39,6.39,0,0,1,1.63,1.77,6.33,6.33,0,0,1,.43,6.2A6.54,6.54,0,0,1,499,10.69l-.15.15a6,6,0,0,1-2.06,1.44,6.44,6.44,0,0,1-2.47.49H127.82A28.84,28.84,0,0,0,99,43a26.89,26.89,0,0,0,.28,2.86,27.91,27.91,0,0,0,1.4,5.41,28.54,28.54,0,0,0,2.4,4.94,29,29,0,0,0,5.2,6.28,29.81,29.81,0,0,0,4.35,3.3q1.17.72,2.4,1.35a30.11,30.11,0,0,0,13.58,3.23H494.29a6.14,6.14,0,0,1,4.53,1.93l.14.15a6.31,6.31,0,0,1-4.53,10.69H127.82A41.67,41.67,0,0,1,123.47,83Z"/><path class="cls-3" d="M489.54,12.78V70.42h-361A30.11,30.11,0,0,1,115,67.19a26.84,26.84,0,0,1-2.4-1.35,29.81,29.81,0,0,1-4.35-3.3,29,29,0,0,1-5.2-6.28,27.46,27.46,0,0,1-2.39-4.94,26.54,26.54,0,0,1-1.4-5.41,27.26,27.26,0,0,1-.3-2.85A28.86,28.86,0,0,1,127.7,12.78Z"/><path class="cls-4" d="M120.16,26H487a2,2,0,1,1,0,3.92H120.16a2,2,0,1,1,0-3.92Z"/><path class="cls-4" d="M489.12,42.06A2,2,0,0,1,487,44H112.72a2,2,0,1,1,0-3.91H487A2,2,0,0,1,489.12,42.06Z"/><path class="cls-4" d="M487,58.67H120.16a2,2,0,1,1,0-3.91H487a2,2,0,1,1,0,3.91Z"/><path class="cls-2" d="M463.48,93.19a40.89,40.89,0,0,1,26.83,13.93,42.85,42.85,0,0,1,3.82,5,40.87,40.87,0,0,1,2.58,4.74,41.39,41.39,0,0,1,4,19.33,40.45,40.45,0,0,1-7.91,22.54,42.59,42.59,0,0,1-5.26,5.89,43.17,43.17,0,0,1-29.41,11.55H92.52a6.16,6.16,0,0,1-3.59-1.1,6,6,0,0,1-1.63-1.77,6.31,6.31,0,0,1-.44-6.19A6.64,6.64,0,0,1,88,165.45l.14-.15a6,6,0,0,1,2.06-1.44,6.52,6.52,0,0,1,2.47-.49H459.14a28.85,28.85,0,0,0,28.78-30.27c-.05-1-.15-1.92-.29-2.86a27.88,27.88,0,0,0-3.8-10.35,29.23,29.23,0,0,0-5.19-6.28,30.63,30.63,0,0,0-4.36-3.3c-.77-.48-1.57-.93-2.39-1.35a30.19,30.19,0,0,0-7.9-2.68,29.75,29.75,0,0,0-5.69-.55H92.67a6.19,6.19,0,0,1-4.54-1.92l-.14-.16A6.31,6.31,0,0,1,92.52,93H459.14A41.62,41.62,0,0,1,463.48,93.19Z"/><path class="cls-3" d="M97.41,163.36V105.72h361A30.18,30.18,0,0,1,472,109a26.67,26.67,0,0,1,2.39,1.35,30.07,30.07,0,0,1,4.36,3.3,29.28,29.28,0,0,1,5.19,6.28,28.54,28.54,0,0,1,2.4,4.94,27.91,27.91,0,0,1,1.4,5.41c.14.94.24,1.9.29,2.86a28.85,28.85,0,0,1-28.78,30.27Z"/><path class="cls-4" d="M466.79,150.13H99.93a2,2,0,1,1,0-3.92H466.79a2,2,0,1,1,0,3.92Z"/><path class="cls-4" d="M97.84,134.09a2,2,0,0,1,2.12-2H474.23a2,2,0,1,1,0,3.91H100A2,2,0,0,1,97.84,134.09Z"/><path class="cls-4" d="M99.93,117.47H466.79a2,2,0,1,1,0,3.92H99.93a2,2,0,1,1,0-3.92Z"/><path class="cls-2" d="M123.47,268.88a41.54,41.54,0,0,1-22.59-9.7,42.33,42.33,0,0,1-4.23-4.24,39.26,39.26,0,0,1-3.82-5,40.73,40.73,0,0,1-2.58-4.73,41.32,41.32,0,0,1-4-19.33,40.45,40.45,0,0,1,7.91-22.54,41.4,41.4,0,0,1,5.25-5.89,43.3,43.3,0,0,1,29.42-11.56H494.43a5.88,5.88,0,0,1,5.23,2.88,6.31,6.31,0,0,1,.43,6.19,6.59,6.59,0,0,1-1.12,1.63l-.15.15a6,6,0,0,1-2.06,1.43,6.27,6.27,0,0,1-2.47.5H127.82A28.84,28.84,0,0,0,99,229a26.63,26.63,0,0,0,.28,2.86,27.71,27.71,0,0,0,3.8,10.35,29.64,29.64,0,0,0,9.55,9.58q1.17.74,2.4,1.35a30.15,30.15,0,0,0,7.89,2.69,29.82,29.82,0,0,0,5.69.54H494.29a6.17,6.17,0,0,1,4.53,1.93l.14.15a6.31,6.31,0,0,1-4.53,10.69H127.82A41.68,41.68,0,0,1,123.47,268.88Z"/><path class="cls-3" d="M489.54,198.7v57.64h-361A30.11,30.11,0,0,1,115,253.11a26.84,26.84,0,0,1-2.4-1.35,29.75,29.75,0,0,1-4.35-3.29,29.28,29.28,0,0,1-5.2-6.28,27.79,27.79,0,0,1-2.39-4.94,26.88,26.88,0,0,1-1.4-5.41,27.17,27.17,0,0,1-.3-2.86A28.87,28.87,0,0,1,127.7,198.7Z"/><path class="cls-4" d="M120.16,211.94H487a2,2,0,1,1,0,3.91H120.16a2,2,0,1,1,0-3.91Z"/><path class="cls-4" d="M489.12,228a2,2,0,0,1-2.12,2H112.72a2,2,0,1,1,0-3.92H487A2,2,0,0,1,489.12,228Z"/><path class="cls-4" d="M487,244.59H120.16a2,2,0,1,1,0-3.91H487a2,2,0,1,1,0,3.91Z"/></g></g></g></svg>