<svg xmlns="http://www.w3.org/2000/svg" viewBox="0 0 432.04 271.44"><defs><style>.cls-1{fill:#54a9dc;}.cls-2{fill:#002d56;}</style></defs><g id="Capa_2" data-name="Capa 2"><g id="Capa_1-2" data-name="Capa 1"><path class="cls-1" d="M179.79,151.05A12.1,12.1,0,1,1,169,137.79,12.12,12.12,0,0,1,179.79,151.05Z"/><path class="cls-1" d="M171.07,97.45l-51,20.41,24.82,13.58a30.52,30.52,0,0,0-2.43,3.75,28.8,28.8,0,1,0,46.49-5.71l18.76-9.71c-.1,1.22-.16,2.56-.19,4-.2,4.91-.41,10.91-3.25,13.94a3.12,3.12,0,1,0,3.11,2.57c3.71-4.08,4-10.8,4.16-16.36a30.72,30.72,0,0,1,.62-6.46l4.46-2.32Zm19.28,45a23.92,23.92,0,0,1,1,9.73l0,.08-4.46-.46a19.87,19.87,0,0,1-2,6.72l4,2a23.76,23.76,0,0,1-6.24,7.67l-2.84-3.5a18.88,18.88,0,0,1-6.15,3.36l1.42,4.28a23.28,23.28,0,0,1-9.77,1l.4-4.48a18.92,18.92,0,0,1-6.72-2l-2,4a23.71,23.71,0,0,1-7.69-6.2l3.52-2.85a19,19,0,0,1-3.38-6.14l-4.28,1.4a23.34,23.34,0,0,1-1-9.79l4.48.42a19,19,0,0,1,2-6.72l-4-2a23.92,23.92,0,0,1,6.2-7.69l2.85,3.52a19.19,19.19,0,0,1,6.14-3.38l-1.4-4.29a23.6,23.6,0,0,1,9.81-1l.1,0-.47,4.46a19.06,19.06,0,0,1,6.71,2l2.07-4a23.77,23.77,0,0,1,7.66,6.22l-3.52,2.83a19.45,19.45,0,0,1,3.36,6.16Z"/><path class="cls-1" d="M143.37,248.76H190.8A52,52,0,0,1,143.37,248.76Z"/><path class="cls-1" d="M219.68,216.71a18.78,18.78,0,0,1-6.31,13l-1.18,1.18-8.36,8.35c-.46.47-1,.94-1.43,1.36H131.77c-.48-.42-1-.89-1.44-1.36l-9.51-9.53a20.6,20.6,0,0,1-6.39-13.64c0-.64,0-1.26,0-1.86a20.52,20.52,0,0,1,4.41-11.81,9.9,9.9,0,0,1,2.73-2.18,8.28,8.28,0,0,1,1.48-.64l35.08-15.07H174.8L211,200.34c1.46,1.26,2.91,2.54,4.39,3.82a18.94,18.94,0,0,1,4.18,10.07A15.47,15.47,0,0,1,219.68,216.71Z"/><path class="cls-1" d="M314.93,73.44l-10.06,3.28A45.07,45.07,0,0,0,297,62.28l8.23-6.67a55.42,55.42,0,0,0-18-14.58l-4.81,9.44a44.83,44.83,0,0,0-15.75-4.68l1.08-10.53-.21,0a55.22,55.22,0,0,0-23,2.48l3.3,10.06a45.28,45.28,0,0,0-14.41,7.89l-6.69-8.2a55.39,55.39,0,0,0-14.53,18l9.46,4.78a44.63,44.63,0,0,0-4.62,15.78l-10.54-1A55.27,55.27,0,0,0,209,108L219,104.69a45.15,45.15,0,0,0,7.9,14.44l-8.22,6.68a55.41,55.41,0,0,0,18,14.54l4.79-9.44a44.58,44.58,0,0,0,15.79,4.64l-1,10.54a55.48,55.48,0,0,0,22.91-2.44l-3.29-10.07a44.75,44.75,0,0,0,14.43-7.87l6.68,8.23a55.69,55.69,0,0,0,14.57-18l-9.45-4.8a44.65,44.65,0,0,0,4.66-15.76l10.53,1.09,0-.17A55.41,55.41,0,0,0,314.93,73.44ZM290.17,93.53a28.38,28.38,0,1,1-25.37-31.1A28.39,28.39,0,0,1,290.17,93.53Z"/><path class="cls-2" d="M360.74,0H71.32a28.92,28.92,0,0,0-28.9,28.88V240.62h347.2V28.88A28.91,28.91,0,0,0,360.74,0Zm6.95,214.23H64.35V19.4H367.69Zm52.06,34.51H12.31a17.46,17.46,0,0,0-8.7,2.12C1.38,252.17,0,254,0,256c0,8.54,11.75,15.46,26.24,15.46H405.8c7.25,0,13.81-1.73,18.55-4.53S432,260.25,432,256C432,252,426.53,248.74,419.75,248.74Z"/></g></g></svg>