<svg xmlns="http://www.w3.org/2000/svg" viewBox="0 0 400 500.64"><defs><style>.cls-1{fill:#002d56;}.cls-2{fill:#54a9dc;}.cls-3{fill:#004a9a;}.cls-4{fill:#fff;}</style></defs><g id="Capa_2" data-name="Capa 2"><g id="Capa_1-2" data-name="Capa 1"><path class="cls-1" d="M31.81,154.27h-15V32.55C16.79,14.6,33.08,0,53.11,0h293c20,0,36.32,14.6,36.32,32.55V152.26h-15V32.55c0-9.66-9.56-17.52-21.3-17.52h-293c-11.74,0-21.3,7.86-21.3,17.52Z"/><path class="cls-1" d="M367.38,346.37h15V468.09c0,18-16.29,32.55-36.32,32.55h-293c-20,0-36.32-14.6-36.32-32.55V348.38h15V468.09c0,9.66,9.56,17.53,21.3,17.53h293c11.74,0,21.3-7.87,21.3-17.53Z"/><rect class="cls-2" y="75.45" width="50.08" height="350.59"/><rect class="cls-2" x="349.92" y="75.45" width="50.08" height="350.59"/><path class="cls-3" d="M63,250.74a60.86,60.86,0,0,1-6,26.71,5.42,5.42,0,0,0,1.06,6.24h0a5.47,5.47,0,0,0,8.76-1.44A71.08,71.08,0,0,0,74,250.74a71.3,71.3,0,0,0-7.15-31.5,5.47,5.47,0,0,0-8.77-1.44v0A5.41,5.41,0,0,0,57,224.05,60.8,60.8,0,0,1,63,250.74Z"/><path class="cls-3" d="M132.08,250.73c0-28.84-7.29-55.57-19.64-77.48a5.47,5.47,0,0,0-8.64-1.18h0a5.47,5.47,0,0,0-.91,6.54c11.43,20.28,18.18,45.2,18.18,72.12s-6.75,51.86-18.18,72.15a5.47,5.47,0,0,0,.91,6.54h0a5.48,5.48,0,0,0,8.64-1.18C124.79,306.32,132.08,279.57,132.08,250.73Z"/><path class="cls-3" d="M102.6,250.74a114.24,114.24,0,0,0-13.28-54.21,5.48,5.48,0,0,0-8.7-1.27h0a5.49,5.49,0,0,0-.94,6.48,103.21,103.21,0,0,1,11.93,49,103.33,103.33,0,0,1-11.93,49,5.49,5.49,0,0,0,.94,6.48h0A5.48,5.48,0,0,0,89.3,305,113.94,113.94,0,0,0,102.6,250.74Z"/><path class="cls-3" d="M162.74,250.74c0-37.93-9.73-73.07-26.23-101.64a5.47,5.47,0,0,0-8.6-1.14l0,0a5.45,5.45,0,0,0-.89,6.56c15.53,26.94,24.73,60.22,24.73,96.2S142.53,320,127,347a5.47,5.47,0,0,0,.89,6.57h0a5.47,5.47,0,0,0,8.6-1.14C153,323.82,162.74,288.7,162.74,250.74Z"/><circle class="cls-4" cx="25.12" cy="250.74" r="14.25"/><path class="cls-3" d="M336.52,250.74a60.79,60.79,0,0,1,6-26.71,5.44,5.44,0,0,0-1.06-6.23h0a5.47,5.47,0,0,0-8.77,1.43,72.85,72.85,0,0,0,0,63,5.46,5.46,0,0,0,8.76,1.44h0a5.46,5.46,0,0,0,1.06-6.24A60.64,60.64,0,0,1,336.52,250.74Z"/><path class="cls-3" d="M267.42,250.76c0,28.84,7.28,55.57,19.64,77.48a5.48,5.48,0,0,0,8.64,1.18h0a5.47,5.47,0,0,0,.91-6.54c-11.43-20.28-18.18-45.2-18.18-72.12s6.75-51.86,18.18-72.15a5.47,5.47,0,0,0-.91-6.54h0a5.48,5.48,0,0,0-8.64,1.18C274.7,195.16,267.42,221.91,267.42,250.76Z"/><path class="cls-3" d="M296.9,250.74A114.13,114.13,0,0,0,310.18,305a5.49,5.49,0,0,0,8.7,1.27v0a5.46,5.46,0,0,0,.94-6.48,106.63,106.63,0,0,1,0-98,5.47,5.47,0,0,0-.94-6.47h0a5.48,5.48,0,0,0-8.7,1.26A114,114,0,0,0,296.9,250.74Z"/><path class="cls-3" d="M236.76,250.74c0,37.94,9.73,73.07,26.23,101.64a5.46,5.46,0,0,0,8.6,1.15l0,0a5.44,5.44,0,0,0,.88-6.56C257,320,247.77,286.73,247.77,250.74s9.2-69.28,24.72-96.22a5.44,5.44,0,0,0-.88-6.56h0a5.46,5.46,0,0,0-8.6,1.14C246.49,177.67,236.76,212.79,236.76,250.74Z"/><circle class="cls-4" cx="374.37" cy="250.74" r="14.25"/></g></g></svg>