<svg xmlns="http://www.w3.org/2000/svg" viewBox="0 0 500 337.88"><defs><style>.cls-1{fill:#35a6df;}.cls-2{fill:#1f2e55;}</style></defs><g id="Capa_2" data-name="Capa 2"><g id="Capa_1-2" data-name="Capa 1"><path class="cls-1" d="M311.56,188.14V209.7a6.43,6.43,0,0,1-6.44,6.43H271.5v33.62a6.43,6.43,0,0,1-6.43,6.43H243.51a6.43,6.43,0,0,1-6.43-6.43V216.13H203.46A6.44,6.44,0,0,1,197,209.7V188.14a6.45,6.45,0,0,1,6.44-6.44h33.62V148.08a6.43,6.43,0,0,1,6.43-6.43h21.56a6.43,6.43,0,0,1,6.43,6.43V181.7h33.62A6.44,6.44,0,0,1,311.56,188.14Z"/><path class="cls-2" d="M226.42,294.33l-.29.26a257.8,257.8,0,0,0-40.92-34.31,254.39,254.39,0,0,0-46.51-24.85q-12.16-4.89-24.69-8.59c-4.34-1.26-8.7-2.38-13.08-3.39q-5.54,3.75-11,7.66c-2.36,1.67-4.7,3.38-7,5.09l-3.51,2.56L76,241.36c-4.53,3.36-9,6.79-13.48,10.21A268.32,268.32,0,0,1,95,258.07,256.63,256.63,0,0,1,119.57,266a256.31,256.31,0,0,1,23.55,10.22c1,.44,1.92.95,2.87,1.44l2.83,1.49,2.84,1.48c.93.5,1.86,1.05,2.78,1.57,1.85,1.06,3.73,2.07,5.56,3.17l5.46,3.31c7.21,4.53,14.18,9.41,20.92,14.56a251.36,251.36,0,0,1,19.35,16.47c6.15,5.8,12,11.89,17.6,18.21a246.7,246.7,0,0,0-38.69-32.26c-6.95-4.69-14.16-9-21.52-12.94a248,248,0,0,0-22.65-10.62,246.45,246.45,0,0,0-23.53-8.21,243.33,243.33,0,0,0-73.32-9.71l-18.75.37,14.27-13.09L51.91,239.7c4.24-3.94,8.49-7.85,12.67-11.85l3.14-3,3.12-3,3.2-3.1a247.85,247.85,0,0,0-36.58-1.67h0L0,216.05l30.16-22.7,128.52-93.16s.37,30.18,0,34.31L71.8,196q11,2.4,21.62,5.69a267.82,267.82,0,0,1,26.17,9.54c8.52,3.65,16.82,7.73,24.89,12.16a265,265,0,0,1,44.91,31.42A262.2,262.2,0,0,1,226.42,294.33Z"/><path class="cls-2" d="M273.58,294.33l.29.26a257.8,257.8,0,0,1,40.92-34.31,254.39,254.39,0,0,1,46.51-24.85q12.17-4.89,24.69-8.59c4.34-1.26,8.7-2.38,13.08-3.39q5.54,3.75,11,7.66c2.36,1.67,4.7,3.38,7,5.09l3.51,2.56,3.47,2.6c4.53,3.36,9,6.79,13.48,10.21a268.32,268.32,0,0,0-32.56,6.5,261.89,261.89,0,0,0-48.08,18.11c-1,.44-1.92.95-2.87,1.44l-2.83,1.49-2.84,1.48c-.93.5-1.86,1.05-2.78,1.57-1.85,1.06-3.73,2.07-5.56,3.17l-5.46,3.31c-7.21,4.53-14.18,9.41-20.92,14.56a251.36,251.36,0,0,0-19.35,16.47c-6.15,5.8-12,11.89-17.6,18.21a246.7,246.7,0,0,1,38.69-32.26c6.95-4.69,14.16-9,21.52-12.94a243.16,243.16,0,0,1,46.18-18.83,243.33,243.33,0,0,1,73.32-9.71l18.75.37-14.27-13.09L448.09,239.7c-4.24-3.94-8.49-7.85-12.67-11.85l-3.14-3-3.12-3-3.2-3.1a247.85,247.85,0,0,1,36.58-1.67h0l37.45-1-30.16-22.7L341.32,100.19s-.37,30.18,0,34.31L428.2,196q-10.95,2.4-21.62,5.69a267.82,267.82,0,0,0-26.17,9.54c-8.52,3.65-16.82,7.73-24.89,12.16a265,265,0,0,0-44.91,31.42A262.2,262.2,0,0,0,273.58,294.33Z"/><path class="cls-1" d="M308.16,60.59c4.3-4.56,4.62-13.55,4.89-21,.08-2.18.16-4.21.31-6.06L285.09,48.22a43.34,43.34,0,1,1-69.92,8.58,44.78,44.78,0,0,1,3.67-5.64l-37.4-20.43L258.22,0l68.55,26.64L320,30.12c-.65,2.11-.81,6.43-.93,9.74-.3,8.36-.67,18.46-6.25,24.62a4.71,4.71,0,1,1-4.7-3.89Z"/></g></g></svg>