<svg xmlns="http://www.w3.org/2000/svg" viewBox="0 0 400 338.62"><defs><style>.cls-1{fill:#54a9dc;}.cls-2{fill:#00468f;}.cls-3{fill:#fff;stroke:#002b53;stroke-miterlimit:10;stroke-width:15px;}</style></defs><g id="Capa_2" data-name="Capa 2"><g id="Capa_1-2" data-name="Capa 1"><rect class="cls-1" x="47.64" y="179.56" width="190.43" height="73.87" rx="6.98"/><rect class="cls-1" x="247.5" y="179.56" width="152.5" height="73.87" rx="6.98"/><rect class="cls-1" x="167.7" y="261.96" width="190.43" height="76.67" rx="6.98"/><rect class="cls-2" y="179.56" width="33.84" height="73.87" rx="6.98"/><rect class="cls-2" x="366.16" y="90.43" width="33.84" height="73.87" rx="6.98"/><rect class="cls-2" x="366.16" y="264.75" width="33.84" height="73.87" rx="6.98"/><rect class="cls-1" x="47.64" width="190.43" height="76.67" rx="6.98"/><rect class="cls-1" y="261.96" width="152.5" height="76.67" rx="6.98"/><rect class="cls-1" y="90.43" width="152.5" height="76.67" rx="6.98"/><rect class="cls-1" x="247.5" width="152.5" height="76.67" rx="6.98"/><rect class="cls-1" x="162.19" y="90.43" width="190.43" height="76.67" rx="6.98"/><rect class="cls-2" width="33.84" height="76.67" rx="6.98"/><path class="cls-3" d="M200,57.66s16.48,3.41,52.25,12.87C286,79.46,297.88,83,297.88,83s1.74,35.74-13.59,100.42C271.92,235.69,225.78,264.59,200,281c-25.78-16.37-71.92-45.27-84.29-97.5C100.38,118.78,102.12,83,102.12,83S114,79.46,147.75,70.53C183.52,61.07,200,57.66,200,57.66Z"/><path class="cls-1" d="M200,93.9c-36.37,0-65.85,28.39-65.85,63.41s29.48,63.41,65.85,63.41,65.85-28.38,65.85-63.41S236.37,93.9,200,93.9Zm-58.29,63.41a29.83,29.83,0,1,1,29.83,29.83A29.83,29.83,0,0,1,141.71,157.31Zm66.86,0a36.13,36.13,0,0,0-34.63-36.1,39,39,0,1,1,0,72.21A36.14,36.14,0,0,0,208.57,157.31Zm-7.09,51.84a51.72,51.72,0,0,1-20.59-4.25,48.11,48.11,0,1,0,0-95.16,51.84,51.84,0,1,1,20.61,99.41Z"/></g></g></svg>