<svg xmlns="http://www.w3.org/2000/svg" viewBox="0 0 350 500"><defs><style>.cls-1{fill:#004a9a;}.cls-2{fill:#fff;}.cls-3{fill:#54a9dc;}.cls-4{fill:#1e1e1e;}</style></defs><g id="Capa_2" data-name="Capa 2"><g id="Capa_1-2" data-name="Capa 1"><path class="cls-1" d="M124.5,0h101A124.5,124.5,0,0,1,350,124.5V489.75A10.25,10.25,0,0,1,339.75,500H10.25A10.25,10.25,0,0,1,0,489.75V124.5A124.5,124.5,0,0,1,124.5,0Z"/><circle class="cls-2" cx="175" cy="61.41" r="20"/><rect class="cls-3" y="118.62" width="350" height="304.18"/><path class="cls-2" d="M318.84,221.78l-42.23,46.1-20-15.15v139h-163V252.5L73.39,267.88l-42.23-46.1L69.74,183.9a82.23,82.23,0,0,1,57.44-23.56l18.85-.05c3.65,13.82,15.3,23.93,29.12,23.93s25.47-10.11,29.12-23.93h18.58a82.26,82.26,0,0,1,57.83,23.76Z"/><path class="cls-4" d="M175.29,196.58h-.14c-26.25-.06-35.17-20.53-35.26-20.73L142,175c.33.78,8.46,19.27,33.15,19.33h.13c26.08,0,31.61-18.41,31.83-19.2l2.21.62C209.27,175.92,203.16,196.58,175.29,196.58Z"/><path class="cls-1" d="M155.77,286a45.74,45.74,0,0,1-4.52,20.13,4.11,4.11,0,0,0,.8,4.7h0a4.12,4.12,0,0,0,6.61-1.08,54.93,54.93,0,0,0,0-47.5,4.13,4.13,0,0,0-6.61-1.09h0a4.1,4.1,0,0,0-.79,4.7A45.88,45.88,0,0,1,155.77,286Z"/><path class="cls-1" d="M207.87,286c0-21.75-5.49-41.9-14.81-58.42a4.12,4.12,0,0,0-6.51-.89h0a4.12,4.12,0,0,0-.69,4.93c8.62,15.29,13.71,34.08,13.71,54.38s-5.09,39.09-13.71,54.39a4.12,4.12,0,0,0,.69,4.93h0a4.12,4.12,0,0,0,6.51-.89C202.38,327.86,207.87,307.69,207.87,286Z"/><path class="cls-1" d="M185.64,286a86.15,86.15,0,0,0-10-40.88,4.13,4.13,0,0,0-6.56-1h0a4.12,4.12,0,0,0-.71,4.88,80.39,80.39,0,0,1,0,73.88,4.14,4.14,0,0,0,.71,4.89h0a4.13,4.13,0,0,0,6.55-1A85.83,85.83,0,0,0,185.64,286Z"/><path class="cls-1" d="M231,286c0-28.6-7.33-55.09-19.77-76.63a4.12,4.12,0,0,0-6.49-.86h0a4.12,4.12,0,0,0-.67,5c11.71,20.31,18.64,45.4,18.64,72.53S215.75,338.19,204,358.5a4.12,4.12,0,0,0,.67,4.95h0a4.12,4.12,0,0,0,6.48-.86C223.65,341.05,231,314.57,231,286Z"/><circle class="cls-1" cx="127.23" cy="285.96" r="10.74"/></g></g></svg>