<svg xmlns="http://www.w3.org/2000/svg" viewBox="0 0 394.87 229.5"><defs><style>.cls-1{isolation:isolate;}.cls-2{fill:#004a9a;mix-blend-mode:multiply;}.cls-3{fill:#54a9dc;}</style></defs><g class="cls-1"><g id="Capa_2" data-name="Capa 2"><g id="Capa_1-2" data-name="Capa 1"><path class="cls-2" d="M35.73,142.51q8.39,17.28,20.16,26.84t25.3,9.56q8.67,0,14.35-4.48t5.68-13.11a17,17,0,0,0-3.11-10.17q-3.12-4.32-11.23-8.49T64.41,132a150.69,150.69,0,0,1-15.69-8.17,82.67,82.67,0,0,1-16.65-13.11A66.24,66.24,0,0,1,18.81,91q-5.28-11.73-5.28-27.77,0-20,9.48-34.23A60.88,60.88,0,0,1,48.18,7.4,80.88,80.88,0,0,1,83.09,0q20,0,34.64,7.25a76,76,0,0,1,24.09,18.2A95.25,95.25,0,0,1,156.43,47.5l-39.51,25Q103.93,49,84.17,49.05q-8.11,0-12.58,3.7a12.16,12.16,0,0,0-4.47,9.87q0,10.49,11.5,16.5t29.91,13.42q21.1,8.33,34.64,24.52t13.53,42.11q0,17.28-6.08,30.38a63.53,63.53,0,0,1-16.65,22A72.34,72.34,0,0,1,110.29,225a83,83,0,0,1-26.93,4.48,86.46,86.46,0,0,1-36.13-7.56A90.55,90.55,0,0,1,18.4,201.43,88.32,88.32,0,0,1,0,172.12Z"/><path class="cls-2" d="M172.67,5.55H247.1q25.71,0,42.76,9.26a59,59,0,0,1,25.31,25.6q8.25,16.35,8.25,37.32,0,21.92-8.93,38.71t-27.06,25.45l47.36,79.59H273.62l-37.35-71.57H225.18v71.57H172.67Zm70.1,50.59H225.18v48.43h17.59q12.45,0,19.22-6.32t6.76-18q0-11.42-6.76-17.74T242.77,56.14Z"/><polygon class="cls-2" points="341.29 57.9 341.29 221.48 394.87 221.48 394.87 33.21 341.29 57.9"/><polygon class="cls-3" points="342.22 5.55 341.29 5.55 341.29 50 394.87 25.31 394.87 25.27 342.22 5.55"/></g></g></g></svg>