<svg xmlns="http://www.w3.org/2000/svg" viewBox="0 0 500 354.61"><defs><style>.cls-1{fill:#35a6df;}.cls-2{fill:#fff;}</style></defs><g id="Capa_2" data-name="Capa 2"><g id="Capa_1-2" data-name="Capa 1"><rect class="cls-1" x="72.7" y="-72.7" width="354.61" height="500" rx="37.77" transform="translate(72.7 427.3) rotate(-90)"/><ellipse class="cls-2" cx="166.82" cy="112.84" rx="32.73" ry="38.99"/><path class="cls-2" d="M234.87,225.62l-12.56,12.56a78.2,78.2,0,0,1-110.61,0L97.36,223.84a30.28,30.28,0,0,1-3-41.11,14.61,14.61,0,0,1,4.11-3.26,13.92,13.92,0,0,1,2.22-1l52.81-22.69h25.09l54.55,23.78,6.6,5.78a27.43,27.43,0,0,1-3.09,38.46Z"/><path class="cls-2" d="M220.32,31.64A148.71,148.71,0,0,0,51,265.66a3.63,3.63,0,0,0,5.32.2l6.57-6.57a3.62,3.62,0,0,0,.2-4.91C19.5,202.5,22.11,124.77,70.89,76s126.51-51.4,178.39-7.84a3.65,3.65,0,0,0,4.92-.21l6.57-6.57a3.63,3.63,0,0,0-.2-5.32A147.34,147.34,0,0,0,220.32,31.64Z"/><path class="cls-2" d="M325,317.54a49.2,49.2,0,0,1-9.36,9.36,14.49,14.49,0,0,1-4.81,3c-1.93.82-3.86,1.16-4.76.2L267.29,283a4.65,4.65,0,0,0-6.4-.36,148.61,148.61,0,0,1-191.82,1,4.68,4.68,0,0,1-.3-6.9l5.08-5.08a4.66,4.66,0,0,1,6.28-.3c51.88,42.95,129.14,40.15,177.7-8.42S309.2,137.1,266.25,85.22a4.67,4.67,0,0,1,.3-6.27l5.09-5.09a4.68,4.68,0,0,1,6.9.31,148.6,148.6,0,0,1,.16,190.39,4.66,4.66,0,0,0,.53,6.5l51.43,33.73C332.7,306.57,326.9,315.62,325,317.54Z"/><path class="cls-2" d="M345.33,20.75V77.58h56.82V20.75Zm45.45,45.46H356.7V32.11h34.08Z"/><rect class="cls-2" x="368.06" y="43.48" width="11.36" height="11.37"/><path class="cls-2" d="M345.33,88.94v56.81h56.82V88.94Zm45.45,45.45H356.7V100.3h34.08Z"/><rect class="cls-2" x="368.06" y="111.66" width="11.36" height="11.36"/><path class="cls-2" d="M413.51,20.75V77.58h56.82V20.75ZM459,66.21H424.87V32.11H459Z"/><rect class="cls-2" x="436.23" y="43.48" width="11.36" height="11.37"/><rect class="cls-2" x="436.23" y="134.39" width="11.36" height="11.36"/><rect class="cls-2" x="458.96" y="134.39" width="11.37" height="11.36"/><line class="cls-2" x1="379.42" y1="123.03" x2="368.06" y2="123.03"/><line class="cls-2" x1="379.42" y1="111.66" x2="368.06" y2="111.66"/><polygon class="cls-2" points="470.33 88.94 470.33 123.03 458.96 123.03 458.96 111.67 424.87 111.67 424.87 123.03 436.23 123.03 436.23 134.39 424.87 134.39 424.87 145.75 413.51 145.75 413.51 88.94 436.23 88.94 436.23 100.3 458.96 100.3 458.96 88.94 470.33 88.94"/><line class="cls-2" x1="368.06" y1="123.03" x2="368.06" y2="111.66"/><path class="cls-2" d="M470.33,251.75V279.8a6.6,6.6,0,0,1-6.6,6.6H428.46v35.27a6.6,6.6,0,0,1-6.6,6.6H393.81a6.6,6.6,0,0,1-6.6-6.6V286.4H351.94a6.61,6.61,0,0,1-6.61-6.6V251.75a6.61,6.61,0,0,1,6.61-6.6h35.27V209.88a6.6,6.6,0,0,1,6.6-6.6h28.05a6.6,6.6,0,0,1,6.6,6.6v35.27h35.27A6.6,6.6,0,0,1,470.33,251.75Z"/></g></g></svg>