<svg xmlns="http://www.w3.org/2000/svg" viewBox="0 0 500 500"><defs><style>.cls-1{fill:#35a6df;}.cls-2{fill:#fff;}</style></defs><g id="Capa_2" data-name="Capa 2"><g id="Capa_1-2" data-name="Capa 1"><path class="cls-1" d="M276.75,387.39a9.75,9.75,0,1,1-9.75-9.74A9.76,9.76,0,0,1,276.75,387.39Z"/><path class="cls-1" d="M100.9,260.3a11.86,11.86,0,0,1-4.8-9.62,12,12,0,0,1,3.12-8.11,11,11,0,0,1,17,.72,12,12,0,0,1,2.51,7.39,11.85,11.85,0,0,1-5.41,10,10.9,10.9,0,0,1-12.39-.42Z"/><circle class="cls-1" cx="227.01" cy="111.23" r="9.75"/><path class="cls-1" d="M394.05,237.26A12.07,12.07,0,0,1,395.72,255a11,11,0,0,1-17-.72,12,12,0,0,1-2.51-7.39,11.85,11.85,0,0,1,5.41-10,10.91,10.91,0,0,1,12.4.42Z"/><path class="cls-1" d="M500,203v94.12a28.76,28.76,0,0,1-.4,4.76c-11.53-1.76-19-6.47-33-18.48l-25.38-21.82-1.57-1.34c-13.36-11.5-20.08-17.25-30.59-20.43a22.3,22.3,0,0,0-42-3,24.51,24.51,0,0,0-1,17.44,22.71,22.71,0,0,0,21.47,16.2,22.47,22.47,0,0,0,20-12.58c5.89,2.62,11.55,7.46,21.3,15.88L430.4,275l25.39,21.62c14.91,12.84,23.6,18.81,34.73,21.52a28,28,0,0,1-18.61,7H325.14V471.91A28.09,28.09,0,0,1,297.05,500H276.29V405.07a20.06,20.06,0,1,0-18.58,0V500H203a28.09,28.09,0,0,1-28.09-28.09V325.15H28.09A28.08,28.08,0,0,1,0,297.07V203a27.9,27.9,0,0,1,.67-6.11c8.79,2.37,16,7.31,27.65,17.38L53.7,236l1.57,1.34c13.36,11.5,20.08,17.26,30.59,20.43a22.3,22.3,0,0,0,42,3,24.51,24.51,0,0,0,1-17.44,22.71,22.71,0,0,0-21.47-16.2,22.47,22.47,0,0,0-20,12.59c-5.89-2.63-11.55-7.47-21.3-15.88l-1.57-1.25L39.15,201c-12.23-10.53-20.27-16.44-28.91-19.72a28,28,0,0,1,17.85-6.4H174.86V28.09A28.09,28.09,0,0,1,203,0h14.77V93.55a20.07,20.07,0,1,0,18.58,0V0h60.75a28.09,28.09,0,0,1,28.09,28.09V174.86H471.91A28.09,28.09,0,0,1,500,203Z"/><path class="cls-2" d="M250,179.78c-40.27,0-72.92,31.44-72.92,70.22s32.65,70.21,72.92,70.21,72.92-31.43,72.92-70.21S290.27,179.78,250,179.78ZM185.45,250a33,33,0,1,1,33,33A33,33,0,0,1,185.45,250Zm74,0a40,40,0,0,0-38.35-40,43.15,43.15,0,1,1,0,80A40,40,0,0,0,259.49,250Zm-7.85,57.4a57.32,57.32,0,0,1-22.8-4.7,56.1,56.1,0,0,0,20.41-.83,52.24,52.24,0,0,0,39.57-40.47,53.33,53.33,0,0,0-52.08-64.67,54.62,54.62,0,0,0-7.93.59A57.41,57.41,0,1,1,251.64,307.4Z"/></g></g></svg>